<?xml version="1.0" encoding="iso-8859-1"?>
<!-- Generator: Adobe Illustrator 18.0.0, SVG Export Plug-In . SVG Version: 6.00 Build 0)  -->
<!DOCTYPE svg PUBLIC "-//W3C//DTD SVG 1.1//EN" "http://www.w3.org/Graphics/SVG/1.1/DTD/svg11.dtd">
<svg version="1.1" id="Capa_1" xmlns="http://www.w3.org/2000/svg" xmlns:xlink="http://www.w3.org/1999/xlink" x="0px" y="0px"
	 viewBox="0 0 60 60" style="enable-background:new 0 0 60 60;" xml:space="preserve">
<g>
	<path d="M59.239,48.643c-3.512-5.364-8.2-8.39-13.251-8.59C45.718,40.021,45.445,40,45.166,40c-0.491,0-0.969,0.053-1.431,0.151
		c-4.595,0.593-8.828,3.552-12.062,8.492l-0.465,0.711l0.358,0.547c3.635,5.552,8.529,8.609,13.783,8.609
		c5.253,0,10.148-3.058,13.783-8.61l0.465-0.711L59.239,48.643z M50.075,46.909c0,2.707-2.202,4.909-4.909,4.909
		s-4.909-2.202-4.909-4.909c0-2.343,1.652-4.302,3.852-4.788c0.446-0.053,0.895-0.087,1.348-0.087c0.025,0,0.05,0.003,0.075,0.003
		C48.065,42.227,50.075,44.327,50.075,46.909z M45.349,56.512c-4.387,0-8.538-2.537-11.744-7.161
		c1.559-2.286,3.348-4.069,5.28-5.304c-0.4,0.874-0.629,1.841-0.629,2.863c0,3.81,3.1,6.909,6.909,6.909s6.909-3.1,6.909-6.909
		c0-1.216-0.318-2.358-0.872-3.351c2.204,1.207,4.242,3.107,5.996,5.637C53.979,53.917,49.785,56.512,45.349,56.512z"/>
	<path d="M29.056,51.545l-1.434-2.189L28.509,48H11.403c-0.552,0-1-0.447-1-1s0.448-1,1-1h18.45c1.793-2.508,3.843-4.52,6.074-6
		H11.403c-0.552,0-1-0.447-1-1s0.448-1,1-1h25c0.552,0,1,0.447,1,1c0,0.044-0.019,0.081-0.025,0.123
		c2.526-1.369,5.25-2.089,8.078-2.089c0.655,0,1.303,0.047,1.946,0.123V14.586L32.817,0H0.403v60h38.024
		C34.867,58.389,31.659,55.521,29.056,51.545z M31.403,2l14,14h-14V2z M11.403,14h10c0.552,0,1,0.447,1,1s-0.448,1-1,1h-10
		c-0.552,0-1-0.447-1-1S10.85,14,11.403,14z M11.403,22h25c0.552,0,1,0.447,1,1s-0.448,1-1,1h-25c-0.552,0-1-0.447-1-1
		S10.85,22,11.403,22z M11.403,30h25c0.552,0,1,0.447,1,1s-0.448,1-1,1h-25c-0.552,0-1-0.447-1-1S10.85,30,11.403,30z"/>
</g>
<g>
</g>
<g>
</g>
<g>
</g>
<g>
</g>
<g>
</g>
<g>
</g>
<g>
</g>
<g>
</g>
<g>
</g>
<g>
</g>
<g>
</g>
<g>
</g>
<g>
</g>
<g>
</g>
<g>
</g>
</svg>
